<svg width="141" height="151" viewBox="0 0 141 151" fill="none" xmlns="http://www.w3.org/2000/svg">
<g clip-path="url(#clip0_123_54)">
<path d="M37.9678 89.56L60.9305 74.5041C60.9305 74.5041 71.4849 36.77 74.5658 26.2643C77.6467 15.7586 89.1614 15.9782 89.1614 15.9782L74.0161 68.9406L74.0326 68.9545L123.561 44.8432C123.561 44.8432 125.779 56.1462 115.968 61.0046C106.157 65.863 70.8268 82.8081 70.8268 82.8081L60.0631 107.862" stroke="#E9C664" stroke-width="3" stroke-linecap="round" stroke-linejoin="round"/>
<path d="M35.035 104.054C32.7146 106.82 29.466 108.669 25.813 109.305C22.16 109.941 18.3155 109.325 14.899 107.558C11.4824 105.791 8.69304 102.974 6.98047 99.5628C5.26784 96.1515 4.73176 92.3438 5.45857 88.7537C6.18538 85.1636 8.13284 82.0001 10.987 79.7731C13.8411 77.5462 17.4356 76.3855 21.1911 76.4782C24.9466 76.5711 28.6444 77.9118 31.6883 80.2844C34.7323 82.657 36.945 85.9233 37.9701 89.5567" stroke="#E9C664" stroke-width="3" stroke-linecap="round" stroke-linejoin="round"/>
<path d="M60.0614 107.86C63.7988 108.309 67.358 109.977 70.1696 112.597C72.9811 115.217 74.8825 118.637 75.5693 122.311C76.2561 125.985 75.6887 129.7 73.9579 132.861C72.2271 136.022 69.4329 138.447 66.0225 139.747C62.6123 141.047 58.7829 141.148 55.1475 140.033C51.5121 138.917 48.2806 136.651 45.9705 133.596C43.6602 130.541 42.4049 126.874 42.4051 123.182C42.4054 119.49 43.6614 115.987 45.972 113.232" stroke="#E9C664" stroke-width="3" stroke-linecap="round" stroke-linejoin="round"/>
<path d="M35.0354 104.053C37.9871 100.712 55.7784 80.9564 60.4506 84.8768C65.1384 88.8104 48.7459 109.753 46.1045 113.065" stroke="#E9C664" stroke-width="3" stroke-linecap="round" stroke-linejoin="round"/>
</g>
<defs>
<clipPath id="clip0_123_54">
<rect width="87.0023" height="122.109" fill="white" transform="translate(74.1211 0.893066) rotate(40)"/>
</clipPath>
</defs>
</svg>
